# xmcd
#
# Track frame offsets:
#	150
#	11905
#	25126
#	38407
#	53326
#	65779
#	83487
#	106953
#	121283
#	134674
#	152899
#	161300
#	179603
#	188003
#
# Disc length: 2704 seconds
#
# Revision: 0
# Processed by: cddbd v1.5.2PL0 Copyright (c) Steve Scherf et al.
# Submitted via: dBpowerAMP V4.0
#
DISCID=ae0a8e0e
DTITLE=V. A. - Dynamite - 20
DYEAR=2010
DGENRE=Rock and Roll
TTITLE0=Si Cranstoun - Dynamo
TTITLE1=Chilli and The Barracudas - Chab It Off
TTITLE2=P. Paul Fenech - Lover's Rock
TTITLE3=Los Santos - Twisting In The Taiga
TTITLE4=The Kings Of Nuthin' - New Scenery
TTITLE5=Sarah Blackwood - Drags Me Down
TTITLE6=Hola Ghost - Spanish Moon (Vinyl Version)
TTITLE7=The Acting Apes - Second Choice
TTITLE8=Rocket Wheels - Rocket To The Moon
TTITLE9=The Don Darlings - Bukowski Mornings
TTITLE10=Dieter Kropp - Deine Scharfen Moleküle
TTITLE11=The Surf Rats - Lonely Drive
TTITLE12=Reverend Elvis And The Undead Syncopators - Kill!Kill!Kill!
TTITLE13=The Fonxionaries - Gin And Tonic
EXTD=
EXTT0=
EXTT1=
EXTT2=
EXTT3=
EXTT4=
EXTT5=
EXTT6=
EXTT7=
EXTT8=
EXTT9=
EXTT10=
EXTT11=
EXTT12=
EXTT13=
PLAYORDER=
